# This file uses centimeters as units for non-parametric coordinates.

mtllib BalconyBlock001.mtl
g default
v -299.832550 -11.875063 98.750122
v -299.375061 -12.332548 98.750122
v -298.750122 -12.500000 98.750122
v -298.750122 -12.332548 99.375061
v -298.750122 -11.875063 99.832550
v -298.750122 -11.250125 100.000000
v -299.375061 -11.250125 99.832550
v -299.832550 -11.250125 99.375061
v -300.000000 -11.250125 98.750122
v 299.375061 -12.332548 98.750122
v 299.832550 -11.875063 98.750122
v 300.000000 -11.250125 98.750122
v 299.832550 -11.250125 99.375061
v 299.375061 -11.250125 99.832550
v 298.750122 -11.250125 100.000000
v 298.750122 -11.875063 99.832550
v 298.750122 -12.332548 99.375061
v 298.750122 -12.500000 98.750122
v -299.375061 12.332548 98.750122
v -299.832550 11.875063 98.750122
v -300.000000 11.250125 98.750122
v -299.832550 11.250125 99.375061
v -299.375061 11.250125 99.832550
v -298.750122 11.250125 100.000000
v -298.750122 11.875063 99.832550
v -298.750122 12.332548 99.375061
v -298.750122 12.500000 98.750122
v 299.832550 11.875063 98.750122
v 299.375061 12.332548 98.750122
v 298.750122 12.500000 98.750122
v 298.750122 12.332548 99.375061
v 298.750122 11.875063 99.832550
v 298.750122 11.250125 100.000000
v 299.375061 11.250125 99.832550
v 299.832550 11.250125 99.375061
v 300.000000 11.250125 98.750122
v -299.375061 11.250125 -99.832550
v -299.832550 11.250125 -99.375061
v -300.000000 11.250125 -98.750122
v -299.832550 11.875063 -98.750122
v -299.375061 12.332548 -98.750122
v -298.750122 12.500000 -98.750122
v -298.750122 12.332548 -99.375061
v -298.750122 11.875063 -99.832550
v -298.750122 11.250125 -100.000000
v 299.832550 11.250125 -99.375061
v 299.375061 11.250125 -99.832550
v 298.750122 11.250125 -100.000000
v 298.750122 11.875063 -99.832550
v 298.750122 12.332548 -99.375061
v 298.750122 12.500000 -98.750122
v 299.375061 12.332548 -98.750122
v 299.832550 11.875063 -98.750122
v 300.000000 11.250125 -98.750122
v -299.375061 -12.332548 -98.750122
v -299.832550 -11.875063 -98.750122
v -300.000000 -11.250125 -98.750122
v -299.832550 -11.250125 -99.375061
v -299.375061 -11.250125 -99.832550
v -298.750122 -11.250125 -100.000000
v -298.750122 -11.875063 -99.832550
v -298.750122 -12.332548 -99.375061
v -298.750122 -12.500000 -98.750122
v 299.832550 -11.875063 -98.750122
v 299.375061 -12.332548 -98.750122
v 298.750122 -12.500000 -98.750122
v 298.750122 -12.332548 -99.375061
v 298.750122 -11.875063 -99.832550
v 298.750122 -11.250125 -100.000000
v 299.375061 -11.250125 -99.832550
v 299.832550 -11.250125 -99.375061
v 300.000000 -11.250125 -98.750122
v -299.738556 -11.790177 99.290176
v -299.290161 -12.238558 99.290176
v -299.290161 -11.790177 99.738556
v 299.290161 -12.238558 99.290176
v 299.738556 -11.790177 99.290176
v 299.290161 -11.790177 99.738556
v -299.290161 12.238558 99.290176
v -299.738556 11.790177 99.290176
v -299.290161 11.790177 99.738556
v 299.738556 11.790177 99.290176
v 299.290161 12.238558 99.290176
v 299.290161 11.790177 99.738556
v -299.290161 11.790177 -99.738556
v -299.738556 11.790177 -99.290176
v -299.290161 12.238558 -99.290176
v 299.738556 11.790177 -99.290176
v 299.290161 11.790177 -99.738556
v 299.290161 12.238558 -99.290176
v -299.290161 -12.238558 -99.290176
v -299.738556 -11.790177 -99.290176
v -299.290161 -11.790177 -99.738556
v 299.738556 -11.790177 -99.290176
v 299.290161 -12.238558 -99.290176
v 299.290161 -11.790177 -99.738556
vt 0.770297 0.003793
vt 0.771337 0.003793
vt 0.771337 0.332333
vt 0.770297 0.332333
vt 0.771337 0.002753
vt 0.770438 0.002894
vt 0.808766 0.003793
vt 0.808766 0.332333
vt 0.771337 0.333372
vt 0.770438 0.333231
vt 0.769536 0.003793
vt 0.769536 0.332333
vt 0.808766 0.002753
vt 0.769692 0.002894
vt 0.770438 0.002148
vt 0.771337 0.001992
vt 0.809805 0.003793
vt 0.809805 0.332333
vt 0.808766 0.333372
vt 0.771337 0.334133
vt 0.770438 0.333977
vt 0.769692 0.333231
vt 0.808766 0.001992
vt 0.809664 0.002894
vt 0.810566 0.003793
vt 0.810566 0.332333
vt 0.809664 0.333231
vt 0.808766 0.334133
vt 0.809664 0.002148
vt 0.810410 0.002894
vt 0.810410 0.333231
vt 0.809664 0.333977
vt 0.818857 0.332333
vt 0.817818 0.332333
vt 0.817818 0.003793
vt 0.818857 0.003793
vt 0.818857 0.333372
vt 0.817959 0.333231
vt 0.817057 0.332333
vt 0.817057 0.003793
vt 0.818857 0.002753
vt 0.817959 0.002894
vt 0.856286 0.003793
vt 0.856286 0.332333
vt 0.856286 0.333372
vt 0.818857 0.334133
vt 0.817959 0.333977
vt 0.817213 0.333231
vt 0.817213 0.002894
vt 0.856286 0.002753
vt 0.817959 0.002148
vt 0.818857 0.001992
vt 0.857326 0.332333
vt 0.857326 0.003793
vt 0.857185 0.333231
vt 0.856286 0.334133
vt 0.857185 0.002894
vt 0.856286 0.001992
vt 0.858087 0.332333
vt 0.858087 0.003793
vt 0.857931 0.333231
vt 0.857185 0.333977
vt 0.857185 0.002148
vt 0.857931 0.002894
vt 0.332053 0.996968
vt 0.332053 0.998008
vt 0.003513 0.998008
vt 0.003513 0.996968
vt 0.333093 0.996968
vt 0.332952 0.997867
vt 0.002474 0.996968
vt 0.002615 0.997867
vt 0.003513 0.003032
vt 0.332053 0.003032
vt 0.333093 0.003032
vt 0.333854 0.996968
vt 0.333698 0.997867
vt 0.002474 0.003032
vt 0.001869 0.997867
vt 0.001713 0.996968
vt 0.332053 0.001992
vt 0.003513 0.001992
vt 0.332952 0.002133
vt 0.333854 0.003032
vt 0.001713 0.003032
vt 0.002615 0.002133
vt 0.333698 0.002133
vt 0.001869 0.002133
vt 0.387516 0.998008
vt 0.387516 0.996969
vt 0.716057 0.996969
vt 0.716057 0.998008
vt 0.386477 0.996969
vt 0.386618 0.997867
vt 0.387516 0.003032
vt 0.716057 0.003032
vt 0.717096 0.996969
vt 0.716955 0.997867
vt 0.386477 0.003032
vt 0.385872 0.997867
vt 0.385716 0.996969
vt 0.387516 0.001992
vt 0.716057 0.001992
vt 0.717096 0.003032
vt 0.717857 0.996969
vt 0.717701 0.997867
vt 0.385716 0.003032
vt 0.386618 0.002133
vt 0.716955 0.002133
vt 0.717857 0.003032
vt 0.385872 0.002133
vt 0.717701 0.002133
vt 0.341063 0.996968
vt 0.340023 0.996968
vt 0.340023 0.003032
vt 0.341063 0.003032
vt 0.341063 0.998008
vt 0.340164 0.997867
vt 0.341063 0.001992
vt 0.340164 0.002133
vt 0.378492 0.003032
vt 0.378492 0.996968
vt 0.378492 0.998008
vt 0.378492 0.001992
vt 0.379531 0.996968
vt 0.379531 0.003032
vt 0.379390 0.997867
vt 0.379390 0.002133
vt 0.724883 0.998008
vt 0.724883 0.996969
vt 0.762312 0.996969
vt 0.762312 0.998008
vt 0.723843 0.996969
vt 0.723985 0.997867
vt 0.724883 0.003032
vt 0.762312 0.003032
vt 0.763352 0.996969
vt 0.763210 0.997867
vt 0.723843 0.003032
vt 0.724883 0.001992
vt 0.762312 0.001992
vt 0.763352 0.003032
vt 0.723985 0.002133
vt 0.763210 0.002133
vn -0.000280 -1.000000 0.000845
vn -0.499993 -0.866029 0.000633
vn -0.499993 -0.866029 -0.000633
vn -0.000280 -1.000000 -0.000845
vn -0.707114 -0.707099 0.000628
vn -0.707114 -0.707099 -0.000628
vn -0.965937 -0.258778 0.000595
vn -0.999974 -0.007236 0.000839
vn -0.999974 -0.007236 -0.000839
vn -0.965937 -0.258778 -0.000595
vn -0.000278 -0.007239 0.999974
vn -0.000197 -0.258797 0.965932
vn 0.000197 -0.258797 0.965932
vn 0.000278 -0.007239 0.999974
vn -0.000208 -0.707110 0.707104
vn -0.000210 -0.866028 0.499995
vn 0.000210 -0.866028 0.499995
vn 0.000208 -0.707110 0.707104
vn 0.000280 -1.000000 0.000845
vn -0.966051 -0.005125 0.258301
vn -0.966051 0.005125 0.258301
vn -0.999974 0.007236 0.000839
vn -0.707099 -0.005398 0.707094
vn -0.707099 -0.005398 0.707094
vn -0.707099 0.005398 0.707094
vn -0.707099 0.005398 0.707094
vn -0.258296 -0.005126 0.966052
vn -0.000278 0.007239 0.999974
vn -0.258296 0.005126 0.966052
vn 0.999974 -0.007236 0.000839
vn 0.965937 -0.258778 0.000595
vn 0.965937 -0.258778 -0.000595
vn 0.999974 -0.007236 -0.000839
vn 0.707114 -0.707099 0.000628
vn 0.499993 -0.866029 0.000633
vn 0.499993 -0.866029 -0.000633
vn 0.707114 -0.707099 -0.000628
vn 0.000280 -1.000000 -0.000845
vn 0.258296 -0.005126 0.966052
vn 0.258296 0.005126 0.966052
vn 0.000278 0.007239 0.999974
vn 0.707099 -0.005398 0.707094
vn 0.707099 -0.005398 0.707094
vn 0.707099 0.005398 0.707094
vn 0.707099 0.005398 0.707094
vn 0.966051 -0.005125 0.258301
vn 0.999974 0.007236 0.000839
vn 0.966051 0.005125 0.258301
vn -0.965937 0.258778 0.000595
vn -0.965937 0.258778 -0.000595
vn -0.999974 0.007236 -0.000839
vn -0.707114 0.707099 0.000628
vn -0.499993 0.866029 0.000633
vn -0.499993 0.866029 -0.000633
vn -0.707114 0.707099 -0.000628
vn -0.000280 1.000000 0.000845
vn -0.000280 1.000000 -0.000845
vn -0.000210 0.866028 0.499995
vn 0.000210 0.866028 0.499995
vn 0.000280 1.000000 0.000845
vn -0.000208 0.707110 0.707104
vn 0.000208 0.707110 0.707104
vn -0.000197 0.258797 0.965932
vn 0.000197 0.258797 0.965932
vn 0.499993 0.866029 0.000633
vn 0.499993 0.866029 -0.000633
vn 0.000280 1.000000 -0.000845
vn 0.707114 0.707099 0.000628
vn 0.707114 0.707099 -0.000628
vn 0.965937 0.258778 0.000595
vn 0.999974 0.007236 -0.000839
vn 0.965937 0.258778 -0.000595
vn -0.966051 0.005125 -0.258301
vn -0.966051 -0.005125 -0.258301
vn -0.707099 0.005398 -0.707094
vn -0.707099 0.005398 -0.707094
vn -0.707099 -0.005398 -0.707094
vn -0.707099 -0.005398 -0.707094
vn -0.258296 0.005126 -0.966052
vn -0.000278 0.007239 -0.999974
vn -0.000278 -0.007239 -0.999974
vn -0.258296 -0.005126 -0.966052
vn -0.000197 0.258797 -0.965932
vn 0.000197 0.258797 -0.965932
vn 0.000278 0.007239 -0.999974
vn -0.000208 0.707110 -0.707104
vn -0.000210 0.866028 -0.499995
vn 0.000210 0.866028 -0.499995
vn 0.000208 0.707110 -0.707104
vn 0.258296 0.005126 -0.966052
vn 0.258296 -0.005126 -0.966052
vn 0.000278 -0.007239 -0.999974
vn 0.707099 0.005398 -0.707094
vn 0.707099 0.005398 -0.707094
vn 0.707099 -0.005398 -0.707094
vn 0.707099 -0.005398 -0.707094
vn 0.966051 0.005125 -0.258301
vn 0.966051 -0.005125 -0.258301
vn -0.000210 -0.866028 -0.499995
vn 0.000210 -0.866028 -0.499995
vn -0.000208 -0.707110 -0.707104
vn 0.000208 -0.707110 -0.707104
vn -0.000197 -0.258797 -0.965932
vn 0.000197 -0.258797 -0.965932
vn -0.946111 -0.228973 0.229009
vn -0.707822 -0.499505 0.499483
vn -0.499482 -0.707839 0.499482
vn -0.229013 -0.946101 0.229010
vn -0.499477 -0.499493 0.707835
vn -0.229017 -0.229017 0.946099
vn 0.229013 -0.946101 0.229010
vn 0.499481 -0.707839 0.499482
vn 0.707824 -0.499503 0.499482
vn 0.946111 -0.228973 0.229009
vn 0.499473 -0.499494 0.707837
vn 0.229017 -0.229017 0.946099
vn -0.229013 0.946101 0.229010
vn -0.499481 0.707839 0.499482
vn -0.707824 0.499503 0.499482
vn -0.946111 0.228973 0.229009
vn -0.499473 0.499494 0.707837
vn -0.229017 0.229017 0.946099
vn 0.946111 0.228973 0.229009
vn 0.707822 0.499505 0.499483
vn 0.499482 0.707839 0.499482
vn 0.229013 0.946101 0.229010
vn 0.499477 0.499493 0.707835
vn 0.229017 0.229017 0.946099
vn -0.229017 0.229017 -0.946099
vn -0.499477 0.499493 -0.707835
vn -0.707822 0.499505 -0.499483
vn -0.946111 0.228973 -0.229009
vn -0.499482 0.707839 -0.499482
vn -0.229013 0.946101 -0.229010
vn 0.946111 0.228973 -0.229009
vn 0.707824 0.499503 -0.499482
vn 0.499473 0.499494 -0.707837
vn 0.229017 0.229017 -0.946099
vn 0.499481 0.707839 -0.499482
vn 0.229013 0.946101 -0.229010
vn -0.229013 -0.946101 -0.229010
vn -0.499481 -0.707839 -0.499482
vn -0.707824 -0.499503 -0.499482
vn -0.946111 -0.228973 -0.229009
vn -0.499473 -0.499494 -0.707837
vn -0.229017 -0.229017 -0.946099
vn 0.946111 -0.228973 -0.229009
vn 0.707822 -0.499505 -0.499483
vn 0.499482 -0.707839 -0.499482
vn 0.229013 -0.946101 -0.229010
vn 0.499477 -0.499493 -0.707835
vn 0.229017 -0.229017 -0.946099
s 1
g pCube1
usemtl lambert2SG
f 3/65/1 2/66/2 55/67/3 63/68/4
usemtl lambert3SG
f 2/11/2 1/1/5 56/4/6 55/12/3
s 2
f 1/1/7 9/2/8 57/3/9 56/4/10
s 3
usemtl lambert2SG
f 6/113/11 5/114/12 16/115/13 15/116/14
s 1
f 5/76/15 4/69/16 17/75/17 16/84/18
f 4/69/16 3/65/1 18/74/19 17/75/17
s 2
usemtl lambert3SG
f 9/2/8 8/5/20 22/13/21 21/7/22
s 1
f 8/5/23 7/16/24 23/23/25 22/13/26
s 3
usemtl lambert2SG
f 7/117/27 6/113/11 24/122/28 23/123/29
s 6
usemtl lambert3SG
f 12/33/30 11/34/31 64/35/32 72/36/33
s 1
f 11/34/34 10/39/35 65/40/36 64/35/37
usemtl lambert2SG
f 10/81/35 18/74/19 66/73/38 65/82/36
s 3
f 15/116/14 14/119/39 34/124/40 33/121/41
s 1
usemtl lambert3SG
f 14/46/42 13/37/43 35/45/44 34/56/45
s 6
f 13/37/46 12/33/30 36/44/47 35/45/48
s 2
f 21/7/22 20/17/49 40/18/50 39/8/51
s 1
f 20/17/52 19/25/53 41/26/54 40/18/55
usemtl lambert2SG
f 19/89/53 27/90/56 42/91/57 41/92/54
f 27/90/56 26/93/58 31/99/59 30/95/60
f 26/93/58 25/101/61 32/107/62 31/99/59
s 3
f 25/125/63 24/122/28 33/121/41 32/126/64
s 1
f 30/95/60 29/102/65 52/103/66 51/96/67
usemtl lambert3SG
f 29/59/65 28/53/68 53/54/69 52/60/66
s 6
f 28/53/70 36/44/47 54/43/71 53/54/72
s 2
f 39/8/51 38/19/73 58/9/74 57/3/9
s 1
f 38/19/75 37/28/76 59/20/77 58/9/78
s 11
usemtl lambert2SG
f 37/129/79 45/130/80 60/131/81 59/132/82
f 45/130/80 44/133/83 49/139/84 48/135/85
s 1
f 44/105/86 43/97/87 50/104/88 49/110/89
f 43/97/87 42/91/57 51/96/67 50/104/88
s 11
f 48/135/85 47/140/90 70/141/91 69/136/92
s 1
usemtl lambert3SG
f 47/58/93 46/50/94 71/41/95 70/52/96
s 6
f 46/50/97 54/43/71 72/36/33 71/41/98
s 1
usemtl lambert2SG
f 63/68/4 62/71/99 67/78/100 66/73/38
f 62/71/99 61/80/101 68/85/102 67/78/100
s 11
f 61/137/103 60/131/81 69/136/92 68/142/104
s 3
f 6/113/11 15/116/14 33/121/41 24/122/28
s 1
f 27/90/56 30/95/60 51/96/67 42/91/57
s 11
f 45/130/80 48/135/85 69/136/92 60/131/81
s 1
f 63/68/4 66/73/38 18/74/19 3/65/1
s 6
usemtl lambert3SG
f 12/33/30 72/36/33 54/43/71 36/44/47
s 2
f 57/3/9 9/2/8 21/7/22 39/8/51
f 8/5/20 9/2/8 1/1/7 73/6/105
s 1
f 73/6/106 1/1/5 2/11/2 74/14/107
usemtl lambert2SG
f 2/66/2 3/65/1 4/69/16 74/70/108
f 74/70/107 4/69/16 5/76/15 75/77/109
s 3
f 5/114/12 6/113/11 7/117/27 75/118/110
s 1
usemtl lambert3SG
f 75/15/109 7/16/24 8/5/23 73/6/106
f 73/6/106 74/14/107 75/15/109
usemtl lambert2SG
f 17/75/17 18/74/19 10/81/35 76/83/111
usemtl lambert3SG
f 76/48/112 10/39/35 11/34/34 77/38/113
s 6
f 11/34/31 12/33/30 13/37/46 77/38/114
s 1
f 77/38/113 13/37/43 14/46/42 78/47/115
s 3
usemtl lambert2SG
f 14/119/39 15/116/14 16/115/13 78/120/116
s 1
f 78/87/115 16/84/18 17/75/17 76/83/112
usemtl lambert3SG
f 76/48/112 77/38/113 78/47/115
usemtl lambert2SG
f 26/93/58 27/90/56 19/89/53 79/94/117
usemtl lambert3SG
f 79/30/118 19/25/53 20/17/52 80/24/119
s 2
f 20/17/49 21/7/22 22/13/21 80/24/120
s 1
f 80/24/119 22/13/26 23/23/25 81/29/121
s 3
usemtl lambert2SG
f 23/123/29 24/122/28 25/125/63 81/127/122
s 1
f 81/100/121 25/101/61 26/93/58 79/94/118
usemtl lambert3SG
f 79/30/118 80/24/119 81/29/121
s 6
f 35/45/48 36/44/47 28/53/70 82/55/123
s 1
f 82/55/124 28/53/68 29/59/65 83/61/125
usemtl lambert2SG
f 29/102/65 30/95/60 31/99/59 83/108/126
f 83/108/125 31/99/59 32/107/62 84/111/127
s 3
f 32/126/64 33/121/41 34/124/40 84/128/128
s 1
usemtl lambert3SG
f 84/62/127 34/56/45 35/45/44 82/55/124
f 82/55/124 83/61/125 84/62/127
s 11
usemtl lambert2SG
f 44/133/83 45/130/80 37/129/79 85/134/129
s 1
usemtl lambert3SG
f 85/32/130 37/28/76 38/19/75 86/27/131
s 2
f 38/19/73 39/8/51 40/18/50 86/27/132
s 1
f 86/27/131 40/18/55 41/26/54 87/31/133
usemtl lambert2SG
f 41/92/54 42/91/57 43/97/87 87/98/134
f 87/98/133 43/97/87 44/105/86 85/106/130
usemtl lambert3SG
f 85/32/130 86/27/131 87/31/133
s 6
f 53/54/72 54/43/71 46/50/97 88/57/135
s 1
f 88/57/136 46/50/94 47/58/93 89/63/137
s 11
usemtl lambert2SG
f 47/140/90 48/135/85 49/139/84 89/143/138
s 1
f 89/112/137 49/110/89 50/104/88 90/109/139
f 50/104/88 51/96/67 52/103/66 90/109/140
usemtl lambert3SG
f 90/64/139 52/60/66 53/54/69 88/57/136
f 88/57/136 89/63/137 90/64/139
usemtl lambert2SG
f 62/71/99 63/68/4 55/67/3 91/72/141
usemtl lambert3SG
f 91/22/142 55/12/3 56/4/6 92/10/143
s 2
f 56/4/10 57/3/9 58/9/74 92/10/144
s 1
f 92/10/143 58/9/78 59/20/77 93/21/145
s 11
usemtl lambert2SG
f 59/132/82 60/131/81 61/137/103 93/138/146
s 1
f 93/79/145 61/80/101 62/71/99 91/72/142
usemtl lambert3SG
f 91/22/142 92/10/143 93/21/145
s 6
f 71/41/98 72/36/33 64/35/32 94/42/147
s 1
f 94/42/148 64/35/37 65/40/36 95/49/149
usemtl lambert2SG
f 65/82/36 66/73/38 67/78/100 95/86/150
f 95/86/149 67/78/100 68/85/102 96/88/151
s 11
f 68/142/104 69/136/92 70/141/91 96/144/152
s 1
usemtl lambert3SG
f 96/51/151 70/52/96 71/41/95 94/42/148
f 94/42/148 95/49/149 96/51/151
