# This file uses centimeters as units for non-parametric coordinates.

mtllib PlatformBlock001.mtl
g default
v -199.598114 -98.500153 197.000305
v -198.500153 -99.598114 197.000305
v -197.000305 -100.000000 197.000305
v -197.000305 -99.598114 198.500153
v -197.000305 -98.500153 199.598114
v -197.000305 -97.000298 200.000000
v -198.500153 -97.000298 199.598114
v -199.598114 -97.000298 198.500153
v -200.000000 -97.000298 197.000305
v 198.500153 -99.598114 197.000305
v 199.598114 -98.500153 197.000305
v 200.000000 -97.000298 197.000305
v 199.598114 -97.000298 198.500153
v 198.500153 -97.000298 199.598114
v 197.000305 -97.000298 200.000000
v 197.000305 -98.500153 199.598114
v 197.000305 -99.598114 198.500153
v 197.000305 -100.000000 197.000305
v -198.500153 99.598114 197.000305
v -199.598114 98.500153 197.000305
v -200.000000 97.000298 197.000305
v -199.598114 97.000298 198.500153
v -198.500153 97.000298 199.598114
v -197.000305 97.000298 200.000000
v -197.000305 98.500153 199.598114
v -197.000305 99.598114 198.500153
v -197.000305 100.000000 197.000305
v 199.598114 98.500153 197.000305
v 198.500153 99.598114 197.000305
v 197.000305 100.000000 197.000305
v 197.000305 99.598114 198.500153
v 197.000305 98.500153 199.598114
v 197.000305 97.000298 200.000000
v 198.500153 97.000298 199.598114
v 199.598114 97.000298 198.500153
v 200.000000 97.000298 197.000305
v -198.500153 97.000298 -199.598114
v -199.598114 97.000298 -198.500153
v -200.000000 97.000298 -197.000305
v -199.598114 98.500153 -197.000305
v -198.500153 99.598114 -197.000305
v -197.000305 100.000000 -197.000305
v -197.000305 99.598114 -198.500153
v -197.000305 98.500153 -199.598114
v -197.000305 97.000298 -200.000000
v 199.598114 97.000298 -198.500153
v 198.500153 97.000298 -199.598114
v 197.000305 97.000298 -200.000000
v 197.000305 98.500153 -199.598114
v 197.000305 99.598114 -198.500153
v 197.000305 100.000000 -197.000305
v 198.500153 99.598114 -197.000305
v 199.598114 98.500153 -197.000305
v 200.000000 97.000298 -197.000305
v -198.500153 -99.598114 -197.000305
v -199.598114 -98.500153 -197.000305
v -200.000000 -97.000298 -197.000305
v -199.598114 -97.000298 -198.500153
v -198.500153 -97.000298 -199.598114
v -197.000305 -97.000298 -200.000000
v -197.000305 -98.500153 -199.598114
v -197.000305 -99.598114 -198.500153
v -197.000305 -100.000000 -197.000305
v 199.598114 -98.500153 -197.000305
v 198.500153 -99.598114 -197.000305
v 197.000305 -100.000000 -197.000305
v 197.000305 -99.598114 -198.500153
v 197.000305 -98.500153 -199.598114
v 197.000305 -97.000298 -200.000000
v 198.500153 -97.000298 -199.598114
v 199.598114 -97.000298 -198.500153
v 200.000000 -97.000298 -197.000305
v -199.372543 -98.296425 198.296432
v -198.296432 -99.372536 198.296432
v -198.296432 -98.296425 199.372543
v 198.296432 -99.372536 198.296432
v 199.372543 -98.296425 198.296432
v 198.296432 -98.296425 199.372543
v -198.296432 99.372536 198.296432
v -199.372543 98.296425 198.296432
v -198.296432 98.296425 199.372543
v 199.372543 98.296425 198.296432
v 198.296432 99.372536 198.296432
v 198.296432 98.296425 199.372543
v -198.296432 98.296425 -199.372543
v -199.372543 98.296425 -198.296432
v -198.296432 99.372536 -198.296432
v 199.372543 98.296425 -198.296432
v 198.296432 98.296425 -199.372543
v 198.296432 99.372536 -198.296432
v -198.296432 -99.372536 -198.296432
v -199.372543 -98.296425 -198.296432
v -198.296432 -98.296425 -199.372543
v 199.372543 -98.296425 -198.296432
v 198.296432 -99.372536 -198.296432
v 198.296432 -98.296425 -199.372543
vt 0.455577 0.004720
vt 0.457262 0.004720
vt 0.457262 0.447281
vt 0.455577 0.447281
vt 0.457262 0.003035
vt 0.455806 0.003264
vt 0.675173 0.004720
vt 0.675173 0.447281
vt 0.457262 0.448966
vt 0.455806 0.448737
vt 0.454344 0.004720
vt 0.454344 0.447281
vt 0.675173 0.003035
vt 0.454597 0.003264
vt 0.455806 0.002055
vt 0.457262 0.001802
vt 0.676858 0.004720
vt 0.676858 0.447281
vt 0.675173 0.448966
vt 0.457262 0.450199
vt 0.455806 0.449946
vt 0.454597 0.448737
vt 0.675173 0.001802
vt 0.676629 0.003264
vt 0.678091 0.004720
vt 0.678091 0.447281
vt 0.676629 0.448737
vt 0.675173 0.450199
vt 0.676629 0.002055
vt 0.677838 0.003264
vt 0.677838 0.448737
vt 0.676629 0.449946
vt 0.687238 0.447281
vt 0.685554 0.447281
vt 0.685554 0.004720
vt 0.687238 0.004720
vt 0.687238 0.448966
vt 0.685782 0.448737
vt 0.684320 0.447281
vt 0.684320 0.004720
vt 0.687238 0.003035
vt 0.685782 0.003264
vt 0.905150 0.004720
vt 0.905150 0.447281
vt 0.905150 0.448966
vt 0.687238 0.450199
vt 0.685782 0.449946
vt 0.684574 0.448737
vt 0.684574 0.003264
vt 0.905150 0.003035
vt 0.685782 0.002055
vt 0.687238 0.001802
vt 0.906835 0.447281
vt 0.906835 0.004720
vt 0.906606 0.448737
vt 0.905150 0.450199
vt 0.906606 0.003264
vt 0.905150 0.001802
vt 0.908068 0.447281
vt 0.908068 0.004720
vt 0.907815 0.448737
vt 0.906606 0.449946
vt 0.906606 0.002055
vt 0.907815 0.003264
vt 0.003677 0.447281
vt 0.001992 0.447281
vt 0.001992 0.004720
vt 0.003677 0.004720
vt 0.003677 0.448966
vt 0.002221 0.448737
vt 0.003677 0.003035
vt 0.002221 0.003264
vt 0.446238 0.004720
vt 0.446238 0.447281
vt 0.446238 0.448966
vt 0.003677 0.450199
vt 0.002221 0.449946
vt 0.446238 0.003035
vt 0.002221 0.002055
vt 0.003677 0.001802
vt 0.447923 0.447281
vt 0.447923 0.004720
vt 0.447694 0.448737
vt 0.446238 0.450199
vt 0.446238 0.001802
vt 0.447694 0.003264
vt 0.447694 0.449946
vt 0.447694 0.002055
vt 0.552077 0.457109
vt 0.553762 0.457109
vt 0.553762 0.899671
vt 0.552077 0.899671
vt 0.553762 0.455424
vt 0.552306 0.455653
vt 0.996324 0.457109
vt 0.996324 0.899671
vt 0.553762 0.901355
vt 0.552306 0.901126
vt 0.996324 0.455424
vt 0.552306 0.454444
vt 0.553762 0.454191
vt 0.998008 0.457109
vt 0.998008 0.899671
vt 0.996324 0.901355
vt 0.553762 0.902589
vt 0.552306 0.902335
vt 0.996324 0.454191
vt 0.997779 0.455653
vt 0.997779 0.901126
vt 0.996324 0.902589
vt 0.997779 0.454444
vt 0.997779 0.902335
vt 0.100228 0.683265
vt 0.100228 0.681695
vt 0.542790 0.681695
vt 0.542790 0.683265
vt 0.098658 0.683265
vt 0.098658 0.681695
vt 0.544359 0.683265
vt 0.544359 0.681695
vt 0.542790 0.901177
vt 0.100228 0.901177
vt 0.098658 0.901177
vt 0.544359 0.901177
vt 0.100228 0.902746
vt 0.542790 0.902746
vt 0.098658 0.902746
vt 0.544359 0.902746
vt 0.098827 0.455849
vt 0.100397 0.455849
vt 0.100397 0.673761
vt 0.098827 0.673761
vt 0.100397 0.454279
vt 0.098827 0.454279
vt 0.542958 0.455849
vt 0.542958 0.673761
vt 0.100397 0.675330
vt 0.098827 0.675330
vt 0.542958 0.454279
vt 0.544528 0.455849
vt 0.544528 0.673761
vt 0.542958 0.675330
vt 0.544528 0.454279
vt 0.544528 0.675330
vn -0.001015 -0.999999 0.001015
vn -0.499989 -0.866032 0.000761
vn -0.499989 -0.866032 -0.000761
vn -0.001015 -0.999999 -0.001015
vn -0.866030 -0.499991 0.000761
vn -0.866030 -0.499991 -0.000761
vn -0.999997 -0.002054 0.001014
vn -0.999997 -0.002054 -0.001014
vn -0.001014 -0.002054 0.999997
vn -0.000761 -0.499987 0.866032
vn 0.000761 -0.499987 0.866032
vn 0.001014 -0.002054 0.999997
vn -0.000761 -0.866031 0.499990
vn 0.000761 -0.866031 0.499990
vn 0.001015 -0.999999 0.001015
vn -0.866037 -0.001541 0.499977
vn -0.866037 0.001541 0.499977
vn -0.999997 0.002054 0.001014
vn -0.499974 -0.001541 0.866039
vn -0.499974 0.001541 0.866039
vn -0.001014 0.002054 0.999997
vn 0.999997 -0.002054 0.001014
vn 0.866030 -0.499991 0.000761
vn 0.866030 -0.499991 -0.000761
vn 0.999997 -0.002054 -0.001014
vn 0.499989 -0.866032 0.000761
vn 0.499989 -0.866032 -0.000761
vn 0.001015 -0.999999 -0.001015
vn 0.499974 -0.001541 0.866039
vn 0.499974 0.001541 0.866039
vn 0.001014 0.002054 0.999997
vn 0.866037 -0.001541 0.499977
vn 0.866037 0.001541 0.499977
vn 0.999997 0.002054 0.001014
vn -0.866030 0.499991 0.000761
vn -0.866030 0.499991 -0.000761
vn -0.999997 0.002054 -0.001014
vn -0.499989 0.866032 0.000761
vn -0.499989 0.866032 -0.000761
vn -0.001015 0.999999 0.001015
vn -0.001015 0.999999 -0.001015
vn -0.000761 0.866031 0.499990
vn 0.000761 0.866031 0.499990
vn 0.001015 0.999999 0.001015
vn -0.000761 0.499987 0.866032
vn 0.000761 0.499987 0.866032
vn 0.499989 0.866032 0.000761
vn 0.499989 0.866032 -0.000761
vn 0.001015 0.999999 -0.001015
vn 0.866030 0.499991 0.000761
vn 0.866030 0.499991 -0.000761
vn 0.999997 0.002054 -0.001014
vn -0.866037 0.001541 -0.499977
vn -0.866037 -0.001541 -0.499977
vn -0.499974 0.001541 -0.866039
vn -0.499974 -0.001541 -0.866039
vn -0.001014 0.002054 -0.999997
vn -0.001014 -0.002054 -0.999997
vn -0.000761 0.499987 -0.866032
vn 0.000761 0.499987 -0.866032
vn 0.001014 0.002054 -0.999997
vn -0.000761 0.866031 -0.499990
vn 0.000761 0.866031 -0.499990
vn 0.499974 0.001541 -0.866039
vn 0.499974 -0.001541 -0.866039
vn 0.001014 -0.002054 -0.999997
vn 0.866037 0.001541 -0.499977
vn 0.866037 -0.001541 -0.499977
vn -0.000761 -0.866031 -0.499990
vn 0.000761 -0.866031 -0.499990
vn -0.000761 -0.499987 -0.866032
vn 0.000761 -0.499987 -0.866032
vn -0.946105 -0.229003 0.229006
vn -0.707844 -0.499476 0.499480
vn -0.499480 -0.707841 0.499481
vn -0.229005 -0.946103 0.229011
vn -0.499478 -0.499477 0.707846
vn -0.229006 -0.229003 0.946105
vn 0.229006 -0.946104 0.229008
vn 0.499482 -0.707840 0.499481
vn 0.707844 -0.499476 0.499480
vn 0.946104 -0.229007 0.229006
vn 0.499480 -0.499476 0.707844
vn 0.229008 -0.229002 0.946104
vn -0.229006 0.946104 0.229008
vn -0.499482 0.707840 0.499481
vn -0.707844 0.499476 0.499480
vn -0.946104 0.229007 0.229006
vn -0.499480 0.499476 0.707844
vn -0.229008 0.229002 0.946104
vn 0.946105 0.229003 0.229006
vn 0.707844 0.499476 0.499480
vn 0.499480 0.707841 0.499481
vn 0.229005 0.946103 0.229011
vn 0.499478 0.499477 0.707846
vn 0.229006 0.229003 0.946105
vn -0.229006 0.229003 -0.946105
vn -0.499478 0.499477 -0.707846
vn -0.707844 0.499476 -0.499480
vn -0.946105 0.229003 -0.229006
vn -0.499480 0.707841 -0.499481
vn -0.229005 0.946103 -0.229011
vn 0.946104 0.229007 -0.229006
vn 0.707844 0.499476 -0.499480
vn 0.499480 0.499476 -0.707844
vn 0.229008 0.229002 -0.946104
vn 0.499482 0.707840 -0.499481
vn 0.229006 0.946104 -0.229008
vn -0.229006 -0.946104 -0.229008
vn -0.499482 -0.707840 -0.499481
vn -0.707844 -0.499476 -0.499480
vn -0.946104 -0.229007 -0.229006
vn -0.499480 -0.499476 -0.707844
vn -0.229008 -0.229002 -0.946104
vn 0.946105 -0.229003 -0.229006
vn 0.707844 -0.499476 -0.499480
vn 0.499480 -0.707841 -0.499481
vn 0.229005 -0.946103 -0.229011
vn 0.499478 -0.499477 -0.707846
vn 0.229006 -0.229003 -0.946105
s 1
g pCube1
usemtl lambert3SG
f 3/65/1 2/66/2 55/67/3 63/68/4
f 2/11/2 1/1/5 56/4/6 55/12/3
f 1/1/5 9/2/7 57/3/8 56/4/6
usemtl lambert2SG
f 6/113/9 5/114/10 16/115/11 15/116/12
usemtl lambert3SG
f 5/76/10 4/69/13 17/75/14 16/84/11
f 4/69/13 3/65/1 18/74/15 17/75/14
f 9/2/7 8/5/16 22/13/17 21/7/18
f 8/5/16 7/16/19 23/23/20 22/13/17
usemtl lambert2SG
f 7/117/19 6/113/9 24/122/21 23/123/20
usemtl lambert3SG
f 12/33/22 11/34/23 64/35/24 72/36/25
f 11/34/23 10/39/26 65/40/27 64/35/24
f 10/81/26 18/74/15 66/73/28 65/82/27
usemtl lambert2SG
f 15/116/12 14/119/29 34/124/30 33/121/31
usemtl lambert3SG
f 14/46/29 13/37/32 35/45/33 34/56/30
f 13/37/32 12/33/22 36/44/34 35/45/33
f 21/7/18 20/17/35 40/18/36 39/8/37
f 20/17/35 19/25/38 41/26/39 40/18/36
f 19/89/38 27/90/40 42/91/41 41/92/39
f 27/90/40 26/93/42 31/99/43 30/95/44
f 26/93/42 25/101/45 32/107/46 31/99/43
usemtl lambert2SG
f 25/125/45 24/122/21 33/121/31 32/126/46
usemtl lambert3SG
f 30/95/44 29/102/47 52/103/48 51/96/49
f 29/59/47 28/53/50 53/54/51 52/60/48
f 28/53/50 36/44/34 54/43/52 53/54/51
f 39/8/37 38/19/53 58/9/54 57/3/8
f 38/19/53 37/28/55 59/20/56 58/9/54
usemtl lambert2SG
f 37/129/55 45/130/57 60/131/58 59/132/56
f 45/130/57 44/133/59 49/139/60 48/135/61
usemtl lambert3SG
f 44/105/59 43/97/62 50/104/63 49/110/60
f 43/97/62 42/91/41 51/96/49 50/104/63
usemtl lambert2SG
f 48/135/61 47/140/64 70/141/65 69/136/66
usemtl lambert3SG
f 47/58/64 46/50/67 71/41/68 70/52/65
f 46/50/67 54/43/52 72/36/25 71/41/68
f 63/68/4 62/71/69 67/78/70 66/73/28
f 62/71/69 61/80/71 68/85/72 67/78/70
usemtl lambert2SG
f 61/137/71 60/131/58 69/136/66 68/142/72
f 6/113/9 15/116/12 33/121/31 24/122/21
usemtl lambert3SG
f 27/90/40 30/95/44 51/96/49 42/91/41
usemtl lambert2SG
f 45/130/57 48/135/61 69/136/66 60/131/58
usemtl lambert3SG
f 63/68/4 66/73/28 18/74/15 3/65/1
f 12/33/22 72/36/25 54/43/52 36/44/34
f 57/3/8 9/2/7 21/7/18 39/8/37
f 8/5/16 9/2/7 1/1/5 73/6/73
f 73/6/74 1/1/5 2/11/2 74/14/75
f 2/66/2 3/65/1 4/69/13 74/70/76
f 74/70/75 4/69/13 5/76/10 75/77/77
usemtl lambert2SG
f 5/114/10 6/113/9 7/117/19 75/118/78
usemtl lambert3SG
f 75/15/77 7/16/19 8/5/16 73/6/74
f 73/6/74 74/14/75 75/15/77
f 17/75/14 18/74/15 10/81/26 76/83/79
f 76/48/80 10/39/26 11/34/23 77/38/81
f 11/34/23 12/33/22 13/37/32 77/38/82
f 77/38/81 13/37/32 14/46/29 78/47/83
usemtl lambert2SG
f 14/119/29 15/116/12 16/115/11 78/120/84
usemtl lambert3SG
f 78/87/83 16/84/11 17/75/14 76/83/80
f 76/48/80 77/38/81 78/47/83
f 26/93/42 27/90/40 19/89/38 79/94/85
f 79/30/86 19/25/38 20/17/35 80/24/87
f 20/17/35 21/7/18 22/13/17 80/24/88
f 80/24/87 22/13/17 23/23/20 81/29/89
usemtl lambert2SG
f 23/123/20 24/122/21 25/125/45 81/127/90
usemtl lambert3SG
f 81/100/89 25/101/45 26/93/42 79/94/86
f 79/30/86 80/24/87 81/29/89
f 35/45/33 36/44/34 28/53/50 82/55/91
f 82/55/92 28/53/50 29/59/47 83/61/93
f 29/102/47 30/95/44 31/99/43 83/108/94
f 83/108/93 31/99/43 32/107/46 84/111/95
usemtl lambert2SG
f 32/126/46 33/121/31 34/124/30 84/128/96
usemtl lambert3SG
f 84/62/95 34/56/30 35/45/33 82/55/92
f 82/55/92 83/61/93 84/62/95
usemtl lambert2SG
f 44/133/59 45/130/57 37/129/55 85/134/97
usemtl lambert3SG
f 85/32/98 37/28/55 38/19/53 86/27/99
f 38/19/53 39/8/37 40/18/36 86/27/100
f 86/27/99 40/18/36 41/26/39 87/31/101
f 41/92/39 42/91/41 43/97/62 87/98/102
f 87/98/101 43/97/62 44/105/59 85/106/98
f 85/32/98 86/27/99 87/31/101
f 53/54/51 54/43/52 46/50/67 88/57/103
f 88/57/104 46/50/67 47/58/64 89/63/105
usemtl lambert2SG
f 47/140/64 48/135/61 49/139/60 89/143/106
usemtl lambert3SG
f 89/112/105 49/110/60 50/104/63 90/109/107
f 50/104/63 51/96/49 52/103/48 90/109/108
f 90/64/107 52/60/48 53/54/51 88/57/104
f 88/57/104 89/63/105 90/64/107
f 62/71/69 63/68/4 55/67/3 91/72/109
f 91/22/110 55/12/3 56/4/6 92/10/111
f 56/4/6 57/3/8 58/9/54 92/10/112
f 92/10/111 58/9/54 59/20/56 93/21/113
usemtl lambert2SG
f 59/132/56 60/131/58 61/137/71 93/138/114
usemtl lambert3SG
f 93/79/113 61/80/71 62/71/69 91/72/110
f 91/22/110 92/10/111 93/21/113
f 71/41/68 72/36/25 64/35/24 94/42/115
f 94/42/116 64/35/24 65/40/27 95/49/117
f 65/82/27 66/73/28 67/78/70 95/86/118
f 95/86/117 67/78/70 68/85/72 96/88/119
usemtl lambert2SG
f 68/142/72 69/136/66 70/141/65 96/144/120
usemtl lambert3SG
f 96/51/119 70/52/65 71/41/68 94/42/116
f 94/42/116 95/49/117 96/51/119
