# This file uses centimeters as units for non-parametric coordinates.

mtllib RoofBlock002.mtl
g default
v -174.665100 -48.750126 172.500244
v -173.750122 -49.665096 172.500244
v -172.500244 -50.000000 172.500244
v -172.500244 -49.665096 173.750122
v -172.500244 -48.750126 174.665100
v -172.500244 -47.500252 175.000000
v -173.750122 -47.500252 174.665100
v -174.665100 -47.500252 173.750122
v -175.000000 -47.500252 172.500244
v 173.750122 -49.665096 172.500244
v 174.665100 -48.750126 172.500244
v 175.000000 -47.500252 172.500244
v 174.665100 -47.500252 173.750122
v 173.750122 -47.500252 174.665100
v 172.500244 -47.500252 175.000000
v 172.500244 -48.750126 174.665100
v 172.500244 -49.665096 173.750122
v 172.500244 -50.000000 172.500244
v -173.750122 49.665096 172.500244
v -174.665100 48.750126 172.500244
v -175.000000 47.500252 172.500244
v -174.665100 47.500252 173.750122
v -173.750122 47.500252 174.665100
v -172.500244 47.500252 175.000000
v -172.500244 48.750126 174.665100
v -172.500244 49.665096 173.750122
v -172.500244 50.000000 172.500244
v 174.665100 48.750126 172.500244
v 173.750122 49.665096 172.500244
v 172.500244 50.000000 172.500244
v 172.500244 49.665096 173.750122
v 172.500244 48.750126 174.665100
v 172.500244 47.500252 175.000000
v 173.750122 47.500252 174.665100
v 174.665100 47.500252 173.750122
v 175.000000 47.500252 172.500244
v -173.750122 47.500252 -174.665100
v -174.665100 47.500252 -173.750122
v -175.000000 47.500252 -172.500244
v -174.665100 48.750126 -172.500244
v -173.750122 49.665096 -172.500244
v -172.500244 50.000000 -172.500244
v -172.500244 49.665096 -173.750122
v -172.500244 48.750126 -174.665100
v -172.500244 47.500252 -175.000000
v 174.665100 47.500252 -173.750122
v 173.750122 47.500252 -174.665100
v 172.500244 47.500252 -175.000000
v 172.500244 48.750126 -174.665100
v 172.500244 49.665096 -173.750122
v 172.500244 50.000000 -172.500244
v 173.750122 49.665096 -172.500244
v 174.665100 48.750126 -172.500244
v 175.000000 47.500252 -172.500244
v -173.750122 -49.665096 -172.500244
v -174.665100 -48.750126 -172.500244
v -175.000000 -47.500252 -172.500244
v -174.665100 -47.500252 -173.750122
v -173.750122 -47.500252 -174.665100
v -172.500244 -47.500252 -175.000000
v -172.500244 -48.750126 -174.665100
v -172.500244 -49.665096 -173.750122
v -172.500244 -50.000000 -172.500244
v 174.665100 -48.750126 -172.500244
v 173.750122 -49.665096 -172.500244
v 172.500244 -50.000000 -172.500244
v 172.500244 -49.665096 -173.750122
v 172.500244 -48.750126 -174.665100
v 172.500244 -47.500252 -175.000000
v 173.750122 -47.500252 -174.665100
v 174.665100 -47.500252 -173.750122
v 175.000000 -47.500252 -172.500244
v -174.477112 -48.580357 173.580353
v -173.580353 -49.477116 173.580353
v -173.580353 -48.580357 174.477112
v 173.580353 -49.477116 173.580353
v 174.477112 -48.580357 173.580353
v 173.580353 -48.580357 174.477112
v -173.580353 49.477116 173.580353
v -174.477112 48.580357 173.580353
v -173.580353 48.580357 174.477112
v 174.477112 48.580357 173.580353
v 173.580353 49.477116 173.580353
v 173.580353 48.580357 174.477112
v -173.580353 48.580357 -174.477112
v -174.477112 48.580357 -173.580353
v -173.580353 49.477116 -173.580353
v 174.477112 48.580357 -173.580353
v 173.580353 48.580357 -174.477112
v 173.580353 49.477116 -173.580353
v -173.580353 -49.477116 -173.580353
v -174.477112 -48.580357 -173.580353
v -173.580353 -48.580357 -174.477112
v 174.477112 -48.580357 -173.580353
v 173.580353 -49.477116 -173.580353
v 173.580353 -48.580357 -174.477112
vt 0.445062 0.994464
vt 0.005415 0.494581
vt 0.934108 0.994464
vt 0.297546 0.994464
vt 0.140080 0.494581
vt 0.140080 0.005535
vt 0.432211 0.994464
vt 0.150029 0.994464
vt 0.153916 0.494581
vt 0.642962 0.494581
vt 0.432211 0.505418
vt 0.297546 0.505418
vt 0.934108 0.505418
vt 0.792130 0.494581
vt 0.792130 0.005535
vt 0.005415 0.005535
vt 0.153916 0.005535
vt 0.642962 0.005535
vt 0.657465 0.494581
vt 0.657465 0.005535
vt 0.445062 0.505418
vt 0.150029 0.505418
vt 0.284694 0.505418
vt 0.284694 0.994464
vt 0.441519 0.996423
vt 0.146486 0.503460
vt 0.443290 0.995447
vt 0.001872 0.494752
vt 0.444891 0.998008
vt 0.003641 0.494666
vt 0.004458 0.496351
vt 0.148103 0.501875
vt 0.003489 0.498125
vt 0.935880 0.995447
vt 0.294002 0.996423
vt 0.937651 0.996423
vt 0.003489 0.001992
vt 0.295620 0.998008
vt 0.004458 0.003766
vt 0.003641 0.005451
vt 0.934279 0.998008
vt 0.001872 0.005365
vt 0.152144 0.004552
vt 0.288238 0.503460
vt 0.150373 0.003577
vt 0.142006 0.498125
vt 0.286620 0.501875
vt 0.141037 0.496351
vt 0.141854 0.494666
vt 0.153745 0.001992
vt 0.143624 0.494752
vt 0.646505 0.003577
vt 0.435754 0.996423
vt 0.644734 0.004552
vt 0.143624 0.005365
vt 0.643133 0.001992
vt 0.141854 0.005451
vt 0.141037 0.003766
vt 0.434137 0.998008
vt 0.142006 0.001992
vt 0.656488 0.496354
vt 0.286620 0.998008
vt 0.655539 0.498125
vt 0.150373 0.496540
vt 0.288238 0.996423
vt 0.152145 0.495559
vt 0.153831 0.496355
vt 0.653921 0.494752
vt 0.153745 0.498125
vt 0.655539 0.001992
vt 0.434137 0.501875
vt 0.656488 0.003763
vt 0.643133 0.498125
vt 0.653921 0.005365
vt 0.643047 0.496355
vt 0.644733 0.495559
vt 0.435754 0.503460
vt 0.646505 0.496540
vt 0.443290 0.504435
vt 0.146486 0.996423
vt 0.441519 0.503460
vt 0.794056 0.498125
vt 0.148103 0.998008
vt 0.793086 0.496351
vt 0.793903 0.494666
vt 0.444891 0.501875
vt 0.795673 0.494752
vt 0.937651 0.503460
vt 0.294002 0.503460
vt 0.935880 0.504435
vt 0.795673 0.005365
vt 0.934279 0.501875
vt 0.793903 0.005451
vt 0.793086 0.003766
vt 0.295620 0.501875
vt 0.794056 0.001992
vt 0.001872 0.498125
vt 0.146486 0.501875
vt 0.441519 0.998008
vt 0.001872 0.496326
vt 0.443318 0.998008
vt 0.003246 0.496146
vt 0.001872 0.003791
vt 0.935852 0.998008
vt 0.001872 0.001992
vt 0.937651 0.998008
vt 0.294002 0.998008
vt 0.003246 0.003971
vt 0.143624 0.496326
vt 0.152172 0.001992
vt 0.143624 0.498125
vt 0.150373 0.001992
vt 0.288238 0.501875
vt 0.142249 0.496146
vt 0.143624 0.001992
vt 0.435754 0.998008
vt 0.646505 0.001992
vt 0.143624 0.003791
vt 0.644706 0.001992
vt 0.142249 0.003971
vt 0.152172 0.498125
vt 0.653921 0.496326
vt 0.150373 0.498125
vt 0.653921 0.498125
vt 0.288238 0.998008
vt 0.152351 0.496756
vt 0.646505 0.498125
vt 0.435754 0.501875
vt 0.653921 0.001992
vt 0.644706 0.498125
vt 0.653921 0.003791
vt 0.644527 0.496756
vt 0.795673 0.496326
vt 0.443318 0.501875
vt 0.795673 0.498125
vt 0.441519 0.501875
vt 0.146486 0.998008
vt 0.794298 0.496146
vt 0.795673 0.001992
vt 0.294002 0.501875
vt 0.937651 0.501875
vt 0.795673 0.003791
vt 0.935852 0.501875
vt 0.794298 0.003971
vn -0.000966 -0.999999 0.000966
vn -0.499988 -0.866032 0.000725
vn -0.499988 -0.866032 -0.000725
vn -0.000966 -0.999999 -0.000966
vn -0.707108 -0.707105 0.000718
vn -0.707108 -0.707105 -0.000718
vn -0.965943 -0.258754 0.000681
vn -0.999994 -0.003476 0.000964
vn -0.999994 -0.003476 -0.000964
vn -0.965943 -0.258754 -0.000681
vn -0.000964 -0.003476 0.999994
vn -0.000681 -0.258749 0.965944
vn 0.000681 -0.258749 0.965944
vn 0.000964 -0.003476 0.999994
vn -0.000718 -0.707109 0.707105
vn -0.000725 -0.866032 0.499987
vn 0.000725 -0.866032 0.499987
vn 0.000718 -0.707109 0.707105
vn 0.000966 -0.999999 0.000966
vn -0.965990 -0.002456 0.258568
vn -0.965990 0.002456 0.258568
vn -0.999994 0.003476 0.000964
vn -0.707098 -0.002588 0.707110
vn -0.707098 -0.002588 0.707110
vn -0.707098 0.002588 0.707110
vn -0.707098 0.002588 0.707110
vn -0.258576 -0.002456 0.965988
vn -0.000964 0.003476 0.999994
vn -0.258576 0.002456 0.965988
vn 0.999994 -0.003476 0.000964
vn 0.965943 -0.258754 0.000681
vn 0.965943 -0.258754 -0.000681
vn 0.999994 -0.003476 -0.000964
vn 0.707108 -0.707105 0.000718
vn 0.499988 -0.866032 0.000725
vn 0.499988 -0.866032 -0.000725
vn 0.707108 -0.707105 -0.000718
vn 0.000966 -0.999999 -0.000966
vn 0.258576 -0.002456 0.965988
vn 0.258576 0.002456 0.965988
vn 0.000964 0.003476 0.999994
vn 0.707098 -0.002588 0.707110
vn 0.707098 -0.002588 0.707110
vn 0.707098 0.002588 0.707110
vn 0.707098 0.002588 0.707110
vn 0.965990 -0.002456 0.258568
vn 0.999994 0.003476 0.000964
vn 0.965990 0.002456 0.258568
vn -0.965943 0.258754 0.000681
vn -0.965943 0.258754 -0.000681
vn -0.999994 0.003476 -0.000964
vn -0.707108 0.707105 0.000718
vn -0.499988 0.866032 0.000725
vn -0.499988 0.866032 -0.000725
vn -0.707108 0.707105 -0.000718
vn -0.000966 0.999999 0.000966
vn -0.000966 0.999999 -0.000966
vn -0.000725 0.866032 0.499987
vn 0.000725 0.866032 0.499987
vn 0.000966 0.999999 0.000966
vn -0.000718 0.707109 0.707105
vn 0.000718 0.707109 0.707105
vn -0.000681 0.258749 0.965944
vn 0.000681 0.258749 0.965944
vn 0.499988 0.866032 0.000725
vn 0.499988 0.866032 -0.000725
vn 0.000966 0.999999 -0.000966
vn 0.707108 0.707105 0.000718
vn 0.707108 0.707105 -0.000718
vn 0.965943 0.258754 0.000681
vn 0.999994 0.003476 -0.000964
vn 0.965943 0.258754 -0.000681
vn -0.965990 0.002456 -0.258568
vn -0.965990 -0.002456 -0.258568
vn -0.707098 0.002588 -0.707110
vn -0.707098 0.002588 -0.707110
vn -0.707098 -0.002588 -0.707110
vn -0.707098 -0.002588 -0.707110
vn -0.258576 0.002456 -0.965988
vn -0.000964 0.003476 -0.999994
vn -0.000964 -0.003476 -0.999994
vn -0.258576 -0.002456 -0.965988
vn -0.000681 0.258749 -0.965944
vn 0.000681 0.258749 -0.965944
vn 0.000964 0.003476 -0.999994
vn -0.000718 0.707109 -0.707105
vn -0.000725 0.866032 -0.499987
vn 0.000725 0.866032 -0.499987
vn 0.000718 0.707109 -0.707105
vn 0.258576 0.002456 -0.965988
vn 0.258576 -0.002456 -0.965988
vn 0.000964 -0.003476 -0.999994
vn 0.707098 0.002588 -0.707110
vn 0.707098 0.002588 -0.707110
vn 0.707098 -0.002588 -0.707110
vn 0.707098 -0.002588 -0.707110
vn 0.965990 0.002456 -0.258568
vn 0.965990 -0.002456 -0.258568
vn -0.000725 -0.866032 -0.499987
vn 0.000725 -0.866032 -0.499987
vn -0.000718 -0.707109 -0.707105
vn 0.000718 -0.707109 -0.707105
vn -0.000681 -0.258749 -0.965944
vn 0.000681 -0.258749 -0.965944
vn -0.946101 -0.229014 0.229008
vn -0.707845 -0.499478 0.499477
vn -0.499479 -0.707845 0.499477
vn -0.229008 -0.946103 0.229009
vn -0.499481 -0.499480 0.707841
vn -0.229002 -0.229009 0.946104
vn 0.229007 -0.946103 0.229007
vn 0.499479 -0.707842 0.499480
vn 0.707844 -0.499477 0.499478
vn 0.946101 -0.229015 0.229007
vn 0.499481 -0.499477 0.707843
vn 0.229004 -0.229009 0.946104
vn -0.229007 0.946103 0.229007
vn -0.499479 0.707842 0.499480
vn -0.707844 0.499477 0.499478
vn -0.946101 0.229015 0.229007
vn -0.499481 0.499477 0.707843
vn -0.229004 0.229009 0.946104
vn 0.946101 0.229014 0.229008
vn 0.707845 0.499478 0.499477
vn 0.499479 0.707845 0.499477
vn 0.229008 0.946103 0.229009
vn 0.499481 0.499480 0.707841
vn 0.229002 0.229009 0.946104
vn -0.229002 0.229009 -0.946104
vn -0.499481 0.499480 -0.707841
vn -0.707845 0.499478 -0.499477
vn -0.946101 0.229014 -0.229008
vn -0.499479 0.707845 -0.499477
vn -0.229008 0.946103 -0.229009
vn 0.946101 0.229015 -0.229007
vn 0.707844 0.499477 -0.499478
vn 0.499481 0.499477 -0.707843
vn 0.229004 0.229009 -0.946104
vn 0.499479 0.707842 -0.499480
vn 0.229007 0.946103 -0.229007
vn -0.229007 -0.946103 -0.229007
vn -0.499479 -0.707842 -0.499480
vn -0.707844 -0.499477 -0.499478
vn -0.946101 -0.229015 -0.229007
vn -0.499481 -0.499477 -0.707843
vn -0.229004 -0.229009 -0.946104
vn 0.946101 -0.229014 -0.229008
vn 0.707845 -0.499478 -0.499477
vn 0.499479 -0.707845 -0.499477
vn 0.229008 -0.946103 -0.229009
vn 0.499481 -0.499480 -0.707841
vn 0.229002 -0.229009 -0.946104
s 1
g pCube1
usemtl lambert2SG
f 3/1/1 2/27/2 55/79/3 63/21/4
f 2/27/2 1/25/5 56/81/6 55/79/3
s 2
f 1/26/7 9/22/8 57/8/9 56/80/10
s 3
usemtl lambert3SG
f 6/2/11 5/30/12 16/40/13 15/16/14
s 1
f 5/30/15 4/28/16 17/42/17 16/40/18
usemtl lambert2SG
f 4/29/16 3/1/1 18/3/19 17/41/17
s 2
f 9/22/8 8/32/20 22/47/21 21/23/22
s 1
usemtl lambert3SG
f 8/33/23 7/31/24 23/48/25 22/46/26
s 3
f 7/31/27 6/2/11 24/5/28 23/48/29
s 6
usemtl lambert2SG
f 12/4/30 11/35/31 64/89/32 72/12/33
s 1
f 11/36/34 10/34/35 65/90/36 64/88/37
f 10/34/35 18/3/19 66/13/38 65/90/36
s 3
usemtl lambert3SG
f 15/16/14 14/39/39 34/58/40 33/6/41
s 1
f 14/39/42 13/37/43 35/60/44 34/58/45
s 6
usemtl lambert2SG
f 13/38/46 12/4/30 36/7/47 35/59/48
s 2
f 21/23/22 20/44/49 40/65/50 39/24/51
s 1
f 20/45/52 19/43/53 41/66/54 40/64/55
f 19/43/53 27/17/56 42/9/57 41/66/54
f 27/17/56 26/50/58 31/56/59 30/18/60
usemtl lambert3SG
f 26/51/58 25/49/61 32/57/62 31/55/59
s 3
f 25/49/63 24/5/28 33/6/41 32/57/64
s 1
usemtl lambert2SG
f 30/18/60 29/54/65 52/76/66 51/10/67
f 29/54/65 28/52/68 53/78/69 52/76/66
s 6
f 28/53/70 36/7/47 54/11/71 53/77/72
s 2
f 39/24/51 38/62/73 58/83/74 57/8/9
s 1
usemtl lambert3SG
f 38/63/75 37/61/76 59/84/77 58/82/78
s 11
f 37/61/79 45/19/80 60/14/81 59/84/82
f 45/19/80 44/68/83 49/74/84 48/20/85
s 1
usemtl lambert2SG
f 44/69/86 43/67/87 50/75/88 49/73/89
f 43/67/87 42/9/57 51/10/67 50/75/88
s 11
usemtl lambert3SG
f 48/20/85 47/72/90 70/94/91 69/15/92
s 1
f 47/72/93 46/70/94 71/96/95 70/94/96
s 6
usemtl lambert2SG
f 46/71/97 54/11/71 72/12/33 71/95/98
s 1
f 63/21/4 62/86/99 67/92/100 66/13/38
usemtl lambert3SG
f 62/87/99 61/85/101 68/93/102 67/91/100
s 11
f 61/85/103 60/14/81 69/15/92 68/93/104
s 3
f 6/2/11 15/16/14 33/6/41 24/5/28
s 1
usemtl lambert2SG
f 27/17/56 30/18/60 51/10/67 42/9/57
s 11
usemtl lambert3SG
f 45/19/80 48/20/85 69/15/92 60/14/81
s 1
usemtl lambert2SG
f 63/21/4 66/13/38 18/3/19 3/1/1
s 6
f 12/4/30 72/12/33 54/11/71 36/7/47
s 2
f 57/8/9 9/22/8 21/23/22 39/24/51
f 8/32/20 9/22/8 1/26/7 73/98/105
s 1
f 73/99/106 1/25/5 2/27/2 74/101/107
f 2/27/2 3/1/1 4/29/16 74/101/108
usemtl lambert3SG
f 74/100/107 4/28/16 5/30/15 75/102/109
s 3
f 5/30/12 6/2/11 7/31/27 75/102/110
s 1
f 75/102/109 7/31/24 8/33/23 73/97/106
f 73/97/106 74/100/107 75/102/109
usemtl lambert2SG
f 17/41/17 18/3/19 10/34/35 76/104/111
f 76/104/112 10/34/35 11/36/34 77/106/113
s 6
f 11/35/31 12/4/30 13/38/46 77/107/114
s 1
usemtl lambert3SG
f 77/105/113 13/37/43 14/39/42 78/108/115
s 3
f 14/39/39 15/16/14 16/40/13 78/108/116
s 1
f 78/108/115 16/40/18 17/42/17 76/103/112
f 76/103/112 77/105/113 78/108/115
usemtl lambert2SG
f 26/50/58 27/17/56 19/43/53 79/110/117
f 79/110/118 19/43/53 20/45/52 80/112/119
s 2
f 20/44/49 21/23/22 22/47/21 80/113/120
s 1
usemtl lambert3SG
f 80/111/119 22/46/26 23/48/25 81/114/121
s 3
f 23/48/29 24/5/28 25/49/63 81/114/122
s 1
f 81/114/121 25/49/61 26/51/58 79/109/118
f 79/109/118 80/111/119 81/114/121
s 6
usemtl lambert2SG
f 35/59/48 36/7/47 28/53/70 82/116/123
s 1
f 82/117/124 28/52/68 29/54/65 83/119/125
f 29/54/65 30/18/60 31/56/59 83/119/126
usemtl lambert3SG
f 83/118/125 31/55/59 32/57/62 84/120/127
s 3
f 32/57/64 33/6/41 34/58/40 84/120/128
s 1
f 84/120/127 34/58/45 35/60/44 82/115/124
f 82/115/124 83/118/125 84/120/127
s 11
f 44/68/83 45/19/80 37/61/79 85/122/129
s 1
f 85/122/130 37/61/76 38/63/75 86/124/131
s 2
usemtl lambert2SG
f 38/62/73 39/24/51 40/65/50 86/125/132
s 1
f 86/123/131 40/64/55 41/66/54 87/126/133
f 41/66/54 42/9/57 43/67/87 87/126/134
f 87/126/133 43/67/87 44/69/86 85/121/130
f 85/121/130 86/123/131 87/126/133
s 6
f 53/77/72 54/11/71 46/71/97 88/128/135
s 1
usemtl lambert3SG
f 88/129/136 46/70/94 47/72/93 89/131/137
s 11
f 47/72/90 48/20/85 49/74/84 89/131/138
s 1
usemtl lambert2SG
f 89/130/137 49/73/89 50/75/88 90/132/139
f 50/75/88 51/10/67 52/76/66 90/132/140
f 90/132/139 52/76/66 53/78/69 88/127/136
f 88/127/136 89/130/137 90/132/139
f 62/86/99 63/21/4 55/79/3 91/134/141
f 91/134/142 55/79/3 56/81/6 92/136/143
s 2
f 56/80/10 57/8/9 58/83/74 92/137/144
s 1
usemtl lambert3SG
f 92/135/143 58/82/78 59/84/77 93/138/145
s 11
f 59/84/82 60/14/81 61/85/103 93/138/146
s 1
f 93/138/145 61/85/101 62/87/99 91/133/142
f 91/133/142 92/135/143 93/138/145
s 6
usemtl lambert2SG
f 71/95/98 72/12/33 64/89/32 94/140/147
s 1
f 94/141/148 64/88/37 65/90/36 95/143/149
f 65/90/36 66/13/38 67/92/100 95/143/150
usemtl lambert3SG
f 95/142/149 67/91/100 68/93/102 96/144/151
s 11
f 68/93/104 69/15/92 70/94/91 96/144/152
s 1
f 96/144/151 70/94/96 71/96/95 94/139/148
f 94/139/148 95/142/149 96/144/151
